<svg width="28" height="17" viewBox="0 0 28 17" fill="none" xmlns="http://www.w3.org/2000/svg">
<path fill-rule="evenodd" clip-rule="evenodd" d="M1.5 0C0.671573 0 0 0.671573 0 1.5C0 2.32843 0.671573 3 1.5 3H26.5C27.3284 3 28 2.32843 28 1.5C28 0.671573 27.3284 0 26.5 0H1.5ZM0 8.5C0 7.67157 0.671573 7 1.5 7H26.5C27.3284 7 28 7.67157 28 8.5C28 9.32843 27.3284 10 26.5 10H1.5C0.671573 10 0 9.32843 0 8.5ZM10 15.5C10 14.6716 10.6716 14 11.5 14L26.5 14C27.3284 14 28 14.6716 28 15.5C28 16.3284 27.3284 17 26.5 17L11.5 17C10.6716 17 10 16.3284 10 15.5Z" fill="#272D2F"/>
</svg>
